{"accessors" : [{"bufferView" : 0, "byteOffset" : 0, "componentType" : 5123, "count" : 3456, "type" : "SCALAR", "max" : [3108], "min" : [0]}, {"bufferView" : 1, "byteOffset" : 0, "componentType" : 5126, "count" : 3109, "type" : "VEC3", "max" : [-73296.703125, 1554.670654296875, 6008.392578125], "min" : [-74261.5078125, -30.34309959411621, 5200.6083984375], "name" : "POSITION"}, {"bufferView" : 1, "byteOffset" : 12, "componentType" : 5126, "count" : 3109, "type" : "VEC2", "max" : [1, -0], "min" : [0, -1], "name" : "TEXCOORD_0"}, {"bufferView" : 1, "byteOffset" : 20, "componentType" : 5126, "count" : 3109, "type" : "VEC3", "max" : [0.9999701380729675, 0.9853514432907104, 0.9980615377426147], "min" : [-0.9999551177024841, -0.9986973404884338, -0.9996288418769836], "name" : "NORMAL"}, {"bufferView" : 0, "byteOffset" : 6912, "componentType" : 5123, "count" : 564, "type" : "SCALAR", "max" : [535], "min" : [0]}, {"bufferView" : 2, "byteOffset" : 0, "componentType" : 5126, "count" : 536, "type" : "VEC3", "max" : [-73304.1875, 1418.748291015625, 5880.70849609375], "min" : [-74222.2578125, 14.97130012512207, 5268.716796875], "name" : "POSITION"}, {"bufferView" : 2, "byteOffset" : 12, "componentType" : 5126, "count" : 536, "type" : "VEC2", "max" : [0.9961000084877014, -0], "min" : [0, -0.9961000084877014], "name" : "TEXCOORD_0"}, {"bufferView" : 2, "byteOffset" : 20, "componentType" : 5126, "count" : 536, "type" : "VEC3", "max" : [0.997653603553772, 0.6616900563240051, 0.99111008644104], "min" : [-0.9991815090179443, -0.733092188835144, -0.9982197284698486], "name" : "NORMAL"}, {"bufferView" : 0, "byteOffset" : 8040, "componentType" : 5123, "count" : 186, "type" : "SCALAR", "max" : [169], "min" : [0]}, {"bufferView" : 3, "byteOffset" : 0, "componentType" : 5126, "count" : 170, "type" : "VEC3", "max" : [-73199.015625, 1272.881591796875, 6187.7998046875], "min" : [-73349.0078125, 445.39520263671875, 5497.52001953125], "name" : "POSITION"}, {"bufferView" : 3, "byteOffset" : 12, "componentType" : 5126, "count" : 170, "type" : "VEC2", "max" : [0.9922000169754028, -0.015599999576807022], "min" : [0.007799999788403511, -0.9843999743461609], "name" : "TEXCOORD_0"}, {"bufferView" : 3, "byteOffset" : 20, "componentType" : 5126, "count" : 170, "type" : "VEC3", "max" : [0.9994615316390991, 0.9627366065979004, 0.7932010293006897], "min" : [-0.9990764260292053, -0.9808378219604492, -0.9927576184272766], "name" : "NORMAL"}, {"bufferView" : 0, "byteOffset" : 8412, "componentType" : 5123, "count" : 306, "type" : "SCALAR", "max" : [277], "min" : [0]}, {"bufferView" : 4, "byteOffset" : 0, "componentType" : 5126, "count" : 278, "type" : "VEC3", "max" : [-74090.3984375, 923.52587890625, 6546.01171875], "min" : [-74551.7734375, 598.709228515625, 5248.462890625], "name" : "POSITION"}, {"bufferView" : 4, "byteOffset" : 12, "componentType" : 5126, "count" : 278, "type" : "VEC2", "max" : [0.9843999743461609, -0.015599999576807022], "min" : [0.015599999576807022, -0.9843999743461609], "name" : "TEXCOORD_0"}, {"bufferView" : 4, "byteOffset" : 20, "componentType" : 5126, "count" : 278, "type" : "VEC3", "max" : [0.9488834142684937, 0.9860275387763977, 0.9393584132194519], "min" : [-0.9599087834358215, -0.9860275387763977, -0.9397180080413818], "name" : "NORMAL"}, {"bufferView" : 0, "byteOffset" : 9024, "componentType" : 5123, "count" : 2394, "type" : "SCALAR", "max" : [2065], "min" : [0]}, {"bufferView" : 5, "byteOffset" : 0, "componentType" : 5126, "count" : 2066, "type" : "VEC3", "max" : [-73524.1484375, 1849.47802734375, 5802.2490234375], "min" : [-73906.6875, 1005.3427734375, 5246.25244140625], "name" : "POSITION"}, {"bufferView" : 5, "byteOffset" : 12, "componentType" : 5126, "count" : 2066, "type" : "VEC2", "max" : [1, -0.16019999980926514], "min" : [0.2304999977350235, -1], "name" : "TEXCOORD_0"}, {"bufferView" : 5, "byteOffset" : 20, "componentType" : 5126, "count" : 2066, "type" : "VEC3", "max" : [0.9983119964599609, 0.9999091625213623, 0.9992864727973938], "min" : [-0.9988405704498291, -0.9983089566230774, -0.9985896348953247], "name" : "NORMAL"}], "asset" : {"generator" : "Aspose.3D 21.11", "version" : "2.0"}, "buffers" : [{"uri" : "data:application/octet-stream;base64,", "byteLength" : 234828}], "bufferViews" : [{"buffer" : 0, "byteOffset" : 0, "byteLength" : 13812, "target" : 34963}, {"buffer" : 0, "byteOffset" : 13816, "byteLength" : 110592, "byteStride" : 32, "target" : 34962}, {"buffer" : 0, "byteOffset" : 124412, "byteLength" : 18048, "byteStride" : 32, "target" : 34962}, {"buffer" : 0, "byteOffset" : 142464, "byteLength" : 5952, "byteStride" : 32, "target" : 34962}, {"buffer" : 0, "byteOffset" : 148420, "byteLength" : 9792, "byteStride" : 32, "target" : 34962}, {"buffer" : 0, "byteOffset" : 158216, "byteLength" : 76608, "byteStride" : 32, "target" : 34962}], "materials" : [{"name" : "", "pbrMetallicRoughness" : {"baseColorFactor" : [1, 1, 1, 1], "metallicFactor" : 0, "roughnessFactor" : 0}, "emissiveFactor" : [0, 0, 0], "alphaMode" : "OPAQUE", "doubleSided" : false}, {"name" : "", "pbrMetallicRoughness" : {"baseColorFactor" : [1, 1, 1, 1], "metallicFactor" : 0, "roughnessFactor" : 0}, "emissiveFactor" : [0, 0, 0], "alphaMode" : "OPAQUE", "doubleSided" : false}, {"name" : "", "pbrMetallicRoughness" : {"baseColorFactor" : [1, 1, 1, 1], "metallicFactor" : 0, "roughnessFactor" : 0}, "emissiveFactor" : [0, 0, 0], "alphaMode" : "OPAQUE", "doubleSided" : false}, {"name" : "", "pbrMetallicRoughness" : {"baseColorFactor" : [1, 1, 1, 1], "metallicFactor" : 0, "roughnessFactor" : 0}, "emissiveFactor" : [0, 0, 0], "alphaMode" : "OPAQUE", "doubleSided" : false}, {"name" : "", "pbrMetallicRoughness" : {"baseColorFactor" : [1, 1, 1, 1], "metallicFactor" : 0, "roughnessFactor" : 0}, "emissiveFactor" : [0, 0, 0], "alphaMode" : "OPAQUE", "doubleSided" : false}], "meshes" : [{"primitives" : [{"attributes" : {"POSITION" : 1, "TEXCOORD_0" : 2, "NORMAL" : 3}, "indices" : 0, "material" : 0, "mode" : 4}], "name" : ""}, {"primitives" : [{"attributes" : {"POSITION" : 5, "TEXCOORD_0" : 6, "NORMAL" : 7}, "indices" : 4, "material" : 1, "mode" : 4}], "name" : ""}, {"primitives" : [{"attributes" : {"POSITION" : 9, "TEXCOORD_0" : 10, "NORMAL" : 11}, "indices" : 8, "material" : 2, "mode" : 4}], "name" : ""}, {"primitives" : [{"attributes" : {"POSITION" : 13, "TEXCOORD_0" : 14, "NORMAL" : 15}, "indices" : 12, "material" : 3, "mode" : 4}], "name" : ""}, {"primitives" : [{"attributes" : {"POSITION" : 17, "TEXCOORD_0" : 18, "NORMAL" : 19}, "indices" : 16, "material" : 4, "mode" : 4}], "name" : ""}], "nodes" : [{"mesh" : 0, "name" : "rtert"}, {"mesh" : 1, "name" : "sdef_obj02"}, {"mesh" : 2, "name" : "sdef_obj03"}, {"mesh" : 3, "name" : "sdef_obj04"}, {"mesh" : 4, "name" : "sdefyuiop"}], "scene" : 0, "scenes" : [{"nodes" : [0, 1, 2, 3, 4]}]}